<svg width="64" height="41" viewBox="0 0 64 41" fill="none" xmlns="http://www.w3.org/2000/svg">
<path d="M0.752 2.28L7.376 1.416L7.736 7.896C8.648 5.592 10.04 3.84 11.912 2.64C13.832 1.44 16.064 0.839998 18.608 0.839998C22.64 0.839998 25.448 1.968 27.032 4.224C28.616 6.432 29.408 9.816 29.408 14.376V33.096C29.408 35.448 30.152 37.032 31.64 37.848C31.256 38.568 30.632 39.12 29.768 39.504C28.904 39.888 27.992 40.08 27.032 40.08C25.16 40.08 23.768 39.552 22.856 38.496C21.944 37.44 21.488 35.952 21.488 34.032V15.384C21.488 12.36 21.152 10.104 20.48 8.616C19.808 7.128 18.32 6.384 16.016 6.384C13.088 6.384 11.12 7.68 10.112 10.272C9.152 12.864 8.672 16.2 8.672 20.28V39H0.752V2.28ZM50.4551 4.656C49.0151 4.656 47.8631 5.04 46.9991 5.808C46.1351 6.528 45.7031 7.584 45.7031 8.976C45.7031 10.848 46.3271 12.384 47.5751 13.584C48.8711 14.736 50.8391 16.032 53.4791 17.472C55.5911 18.624 57.2711 19.656 58.5191 20.568C59.8151 21.48 60.9191 22.656 61.8311 24.096C62.7431 25.488 63.1991 27.192 63.1991 29.208C63.1991 32.856 61.8791 35.664 59.2391 37.632C56.6471 39.6 53.3351 40.584 49.3031 40.584C45.7991 40.584 42.8471 39.984 40.4471 38.784C38.0951 37.584 36.9191 35.592 36.9191 32.808C36.9191 31.176 37.4231 29.928 38.4311 29.064C39.4391 28.2 40.8071 27.768 42.5351 27.768C43.7831 27.768 44.7431 28.032 45.4151 28.56C45.0311 29.712 44.8391 30.792 44.8391 31.8C44.8391 33.336 45.3191 34.56 46.2791 35.472C47.2391 36.336 48.5351 36.768 50.1671 36.768C51.9431 36.768 53.2871 36.312 54.1991 35.4C55.1591 34.44 55.6391 33.048 55.6391 31.224C55.6391 29.352 54.9911 27.84 53.6951 26.688C52.4471 25.488 50.5031 24.168 47.8631 22.728C45.7511 21.528 44.0471 20.472 42.7511 19.56C41.5031 18.648 40.4231 17.496 39.5111 16.104C38.5991 14.664 38.1431 12.936 38.1431 10.92C38.1431 7.704 39.4391 5.232 42.0311 3.504C44.6231 1.728 47.7671 0.839998 51.4631 0.839998C54.8711 0.839998 57.6551 1.464 59.8151 2.712C62.0231 3.912 63.1271 5.904 63.1271 8.688C63.1271 10.32 62.5991 11.568 61.5431 12.432C60.5351 13.296 59.1671 13.728 57.4391 13.728C56.1911 13.728 55.2311 13.464 54.5591 12.936C54.9431 11.784 55.1351 10.704 55.1351 9.696C55.1351 8.112 54.7271 6.888 53.9111 6.024C53.1431 5.112 51.9911 4.656 50.4551 4.656Z" fill="#BF9EDA"/>
</svg>
